{"asset":{"version":"2.0","generator":"BibleLands-CityGen"},"scene":0,"scenes":[{"nodes":[0]}],"nodes":[{"mesh":0}],"meshes":[{"primitives":[{"attributes":{"POSITION":0,"NORMAL":1},"indices":2,"material":0}]}],"materials":[{"pbrMetallicRoughness":{"baseColorFactor":[0.784,0.659,0.471,1],"metallicFactor":0,"roughnessFactor":0.8}}],"accessors":[{"bufferView":0,"componentType":5126,"count":231,"type":"VEC3","min":[-1.100000023841858,-5.9604645663569045e-9,-1.0499999523162842],"max":[1.649999976158142,2.4000000953674316,1.149999976158142]},{"bufferView":1,"componentType":5126,"count":231,"type":"VEC3"},{"bufferView":2,"componentType":5123,"count":384,"type":"SCALAR"}],"bufferViews":[{"buffer":0,"byteOffset":0,"byteLength":2772,"target":34962},{"buffer":0,"byteOffset":2772,"byteLength":2772,"target":34962},{"buffer":0,"byteOffset":5544,"byteLength":768,"target":34963}],"buffers":[{"uri":"data:application/octet-stream;base64,","byteLength":6312}]}