<?xml version="1.0" encoding="UTF-8"?>
<svg id="Layer_1" data-name="Layer 1" xmlns="http://www.w3.org/2000/svg" viewBox="0 0 867.88 396.77">
  <defs>
    <style>
      .cls-1 {
        fill: #c8a020;
      }
    </style>
  </defs>
  <path class="cls-1" d="M271.17,353.21c-57.18-2.01-112.84,12.75-168.79,21.71-24.17,3.87-49.18,8.39-73.67,9.33-13.63.53-31.05,2.78-28.45-16.46l101.98-212.01c6.84-6.88,24.02-1.78,32.94-4.06,2.89-1.73,2.08-14.6,9.7-16.3,8.02-1.79,22.65.37,31.78-.22,55.1-3.58,110.09-39.14,165.51-26.49,94.29,21.52,78.72,131.47,94.07,204.93.25,1.2.47,2.38,1.91,2.57,14.44-21.79,39.43-34.8,64.02-42.5,18.05-5.65,76.37-15.5,86.91-27.09,7.25-7.97-7.89-13.1-13.7-15.13-21.71-7.55-46.51-8.03-68.47-15.53-12.18-4.16-26.61-11.66-20.48-27,8.78-21.96,80.49-31.34,83.59-40.43,2.12-6.21-8.14-7.82-12.82-8.87-22.99-5.17-58.76-2.88-82.24.83-13.91,2.2-29.29,7.73-42.55,9.45-2.45.32-8.38.87-10.25-.23-1.91-1.99-2.66-4.91-1.48-7.49,2.76-6.05,31.1-13.33,38.74-16.28,19.16-7.38,37.68-16.95,54.88-28.12,8.27-5.37,31-24.5,38.45-25.54,6.38-.89,9.94,1.58,15.41,1.43,15.08-15.89,29.27-32.79,44.49-48.54,4.63-4.79,20.52-21.99,25.22-23.78,7.03-2.67,14.57-1.56,20.31,3.27l73.01,75.06c6.65-.75,11.55-2.6,18.78-.85,11.66,2.82,37.85,31.45,46.7,41.3,4.73,5.27,17.05,17.88,19.9,23.1,3.28,6,1.76,13.49-1.98,18.85-3.21,4.6-6.65,3.69-5.2,11.33,16.2,43.36,34.88,85.92,50.51,129.49,5.63,15.7,14.79,29.71-.23,43.27-23.39,21.12-79.11,31.74-109.98,33.02-77.63,3.21-156.98-31.61-233.3-10.3-38.1,10.64-59.28,34.99-103.27,25.79-15.22-3.18-20.59-9.63-32.73-16.27-7.17-3.92-16.41-6.54-24.1-9.4l-1.13-21.86c1.9-1.92,31.45,10.83,35.67,12.82,6.92,3.26,13.25,8.63,20.78,11.22,34,11.67,61.47-11.88,92.77-21.3,108.93-32.79,227.7,39.91,329.45-11.55,8.75-4.43,14.2-7.61,10.78-18.16-16.03-49.48-39.65-98.28-56.23-147.76-1.62-10.52,4.26-15.08,11.32-21.28l-.03-1.92c-6.55-7.47-12.37-15.7-19.03-23.07-6.87-7.6-21.43-23.42-29.6-28.4-10.17-6.2-8.95-.98-17.38-.51-2.86.16-5.86.01-8.03-2.07l-75.44-78.56c-2.87-2.6-7.78-1.85-10.58.54l-64.54,70.46c-3.87,3.22-8.17,4.56-13.24,3.35-2.01-.48-3.39-2.62-5.26-2.81-3.87-.39-22.43,15.5-27.13,18.83-8.61,6.1-17.77,11.47-26.31,17.69,7.44-.79,14.97-.44,22.48-.51,17.17-.18,35.42-.66,52.29,4.72,11.58,3.69,23.76,12.04,17.03,25.6-9,18.16-54.85,24.44-72.2,33.8-11.23,6.06-5.96,8.8,3.17,11.59,26.79,8.19,69.22,8,91.22,26.78,30.07,25.66-22.45,50.86-41.34,59.68-14.15,6.61-31.6,11.72-45.05,18.95-2.16,1.16-8.34,4.08-7.52,7.18.4,1.49,2.77,2.41,3.38,3.71,1.42,3.03.34,7.62-2.54,9.43-3.6,2.27-22.69,5.17-28.94,7.06-22.09,6.68-41.51,18.07-60.96,30.11-12.14,2.54-12.94-16.6-16.02-25.13-46.01-127.51-229.42-26.01-318.53-20.5-10.55.65-16.16-2.54-14.03-14.03l43.53-130.48c.26-2.04-.07-1.27-1.46-1.47-2.41-.34-9.63-.33-11.28,1.26L30.17,361.2c57.93-2.89,114.17-18.86,171.51-25.98,22.86-2.84,46.59-4.97,69.48-3.02v21ZM413.16,290.21c-3.94-33.31-8.19-68.44-15.28-101.21-5.07-23.38-16.65-42.38-38.5-53.5-50.74-25.84-102.82,5.28-153,15.42-16.57,3.34-33.33,4.99-50.22,5.78l-45.01,135.01c-.47,2.36,1.81,1.57,3.39,1.38,84.32-10.36,187.15-67.88,269.51-25.25,11.37,5.88,20.13,13.44,29.11,22.38Z"/>
  <path class="cls-1" d="M716.96,115.5c27.49-2.03,51.55,21.34,49.08,49.08-1.77,19.91-27.1,62.98-40.05,78.94-3.93,4.84-5.84,5.41-10.24.59-9.88-10.82-31.38-48.61-36.35-62.65-10.77-30.42,3.2-63.43,37.56-65.97ZM717.95,136.44c-11.97,1.3-21.12,13.21-19.52,25.01,3.26,23.99,37.65,25.61,43.68,3.2,4.12-15.31-8.41-29.92-24.16-28.21Z"/>
  <path class="cls-1" d="M301.96,295.5c5.19-.32,10.55-.58,15.75-.34,3.64.17,22.44,2.06,23.33,4.67l1.18,90.92-1.68,3.37c-5.59,1.81-21.3-17.52-27.89-18.91l-23.52,18.44c-1.86.91-5.06,1.19-5.81-1.1l1.99-93.72c.98-2.89,13.4-3.14,16.66-3.34Z"/>
  <path class="cls-1" d="M271.17,300.21v17c-23.2.07-46.4,2.92-69.36,6.14-19.05,2.68-39.33,7.91-58.28,9.73-1.08.1-4.36.66-4.38-.37,42.62-15.01,86.74-28.61,132.01-32.5Z"/>
  <path class="cls-1" d="M355.17,307.21c21.83,7.78,41.59,22.39,52.01,43.49l-16.7-11.3c-11.07-6.57-23.36-10.13-35.31-14.69v-17.5Z"/>
  <path class="cls-1" d="M547.87,310.41c2.59-.75,26.57-.66,29.58,0,7.04,1.57,8.17,12.46.15,13.72-4.33.68-25.79.75-29.72-.15-6.84-1.57-5.83-11.88,0-13.58Z"/>
  <path class="cls-1" d="M636.91,316.46c3.42,3.64,1.52,10.7-4.29,11.68-3.43.58-25.29-1.14-28.74-2.14-6.69-1.94-6.16-12.44,1.85-13.73,3.88-.63,21.58,1.08,25.87,2.01,1.29.28,4.54,1.35,5.32,2.18Z"/>
  <path class="cls-1" d="M657.86,317.4c2.4-.72,27.73-.63,30.59.02,7.24,1.66,5.84,12.53-1.84,13.73-4.85.76-26.72.73-29.97-1.91-3.58-2.91-2.72-10.65,1.22-11.84Z"/>
  <path class="cls-1" d="M735.96,308.41c7.5-.66,11.22,8.8,5.59,12.68-3.29,2.27-21.78,7.13-25.95,7.16-7.06.06-10.3-9.1-3.81-12.92,1.37-.81,22.19-6.75,24.17-6.92Z"/>
  <path class="cls-1" d="M662.9,213.37c1.57-.44,23.15,4.36,25.2,5.41,6.7,3.45,5.18,12.7-3.42,12.49-2.67-.06-20.68-4.2-22.79-5.28-5.63-2.89-3.87-11.24,1.02-12.63Z"/>
  <path class="cls-1" d="M614.87,204.42c3.19-.95,22.72,1.95,26,3.58,4.6,2.28,5.04,10.21.35,11.75-3.23,1.06-23.47-1.75-26.79-3.31-5.4-2.54-4.85-10.44.44-12.02Z"/>
  <path class="cls-1" d="M761.93,269.97c-1.63,1.64-6.55,1.58-8.72.69-1.25-.51-12.55-10.33-14.07-11.92-5.55-5.79-1.71-13.27,5.09-12.12,5.85.99,24.5,16.54,17.71,23.35Z"/>
  <path class="cls-1" d="M769.91,281.47c5.54,5.22-2.24,30.78-13.49,25.98-10.43-4.45,1.34-16.97,2.32-24.16,1.48-3.76,8.72-4.12,11.17-1.82Z"/>
</svg>